<?xml version="1.0" standalone="no"?>
<!DOCTYPE svg PUBLIC "-//W3C//DTD SVG 20010904//EN"
 "http://www.w3.org/TR/2001/REC-SVG-20010904/DTD/svg10.dtd">
<svg version="1.0" xmlns="http://www.w3.org/2000/svg"
 width="2690.000000pt" height="2690.000000pt" viewBox="0 0 2690.000000 2690.000000"
 preserveAspectRatio="xMidYMid meet">
<metadata>
Created by potrace 1.14, written by Peter Selinger 2001-2017
</metadata>
<g transform="translate(0.000000,2690.000000) scale(0.100000,-0.100000)"
fill="#000000" stroke="none">
<path d="M1850 17240 l0 -1250 2218 -1 c1219 -1 2226 -3 2237 -4 96 -13 235
-72 296 -125 182 -159 250 -305 244 -519 -2 -105 -33 -217 -80 -291 -14 -22
-25 -42 -25 -45 0 -6 -51 -65 -85 -97 -35 -35 -131 -97 -176 -114 -24 -10 -48
-20 -54 -24 -9 -7 -47 -14 -140 -26 -11 -1 -1013 -3 -2227 -3 l-2208 -1 0
-3125 0 -3125 1250 0 1250 0 0 1875 0 1875 313 0 312 0 42 -83 c22 -45 181
-363 353 -706 171 -343 315 -631 320 -640 7 -13 55 -109 81 -161 26 -53 114
-228 121 -242 4 -10 12 -27 18 -38 5 -10 177 -354 381 -762 204 -409 413 -826
464 -928 l93 -185 1251 -3 1251 -2 -266 532 c-146 293 -277 556 -291 583 -15
28 -30 57 -34 65 -6 12 -212 425 -249 500 -12 24 -63 124 -71 140 -5 8 -112
224 -240 479 -127 255 -235 471 -239 480 -5 9 -77 153 -161 321 -83 167 -155
311 -160 320 -40 76 -160 323 -157 325 2 2 179 5 393 8 215 2 401 7 415 10 13
4 42 9 64 13 66 9 245 73 310 110 34 19 70 38 81 43 12 5 27 16 34 25 7 9 18
16 23 16 18 0 94 65 191 165 110 112 120 124 138 157 6 13 15 25 19 28 4 3 20
28 35 55 87 151 134 293 152 450 3 28 7 52 9 54 2 2 5 -828 5 -1845 1 -1017 3
-1869 4 -1894 8 -106 38 -240 82 -355 29 -78 115 -236 138 -255 8 -7 15 -16
15 -21 0 -15 31 -50 143 -161 60 -60 114 -108 122 -108 7 0 15 -4 17 -9 5 -14
107 -76 188 -114 80 -37 219 -83 285 -92 22 -4 51 -9 65 -13 14 -4 2887 -8
6385 -9 6196 -2 6363 -2 6460 17 108 20 186 42 250 69 22 10 59 26 83 36 23
10 42 22 42 27 0 4 6 8 13 8 30 0 179 112 272 205 173 172 260 312 324 525 45
147 44 122 47 1580 3 1324 2 1400 -15 1496 -59 318 -228 584 -513 802 -37 29
-70 52 -73 52 -3 0 -24 12 -46 26 -113 71 -312 132 -482 148 -53 5 -56 13 -5
13 166 1 427 96 603 219 63 44 255 226 280 265 6 8 31 47 56 85 63 94 113 194
138 275 12 39 18 61 31 124 5 22 12 56 16 75 4 19 9 658 11 1420 2 1468 2
1466 -44 1620 -42 143 -133 320 -209 407 -11 11 -34 39 -52 61 -28 34 -83 89
-161 162 -60 55 -216 151 -306 188 -72 29 -196 65 -275 78 -25 4 -2905 9
-6400 10 -6080 2 -6359 1 -6455 -16 -55 -10 -127 -25 -160 -35 -86 -24 -249
-106 -341 -171 -89 -64 -251 -224 -303 -299 -19 -28 -37 -52 -40 -55 -4 -3
-13 -19 -22 -35 -8 -17 -24 -48 -36 -70 -70 -134 -122 -323 -127 -462 0 -17
-4 -29 -9 -26 -5 3 -6 10 -4 17 3 6 1 34 -3 61 -5 28 -12 68 -15 90 -33 203
-167 452 -338 625 -111 113 -264 224 -372 270 -27 12 -63 27 -80 34 -46 20
-151 47 -245 61 -69 11 -666 14 -3262 14 l-3178 1 0 -1250z m19445 -1265 c87
-20 161 -55 240 -115 161 -121 247 -285 251 -479 2 -116 -17 -203 -65 -299
-99 -198 -273 -316 -501 -338 -14 -1 -1846 -2 -4072 -3 l-4048 -1 0 -1250 0
-1250 625 0 625 0 0 -625 0 -625 -982 1 c-917 1 -988 2 -1055 19 -170 44 -295
136 -378 280 -24 40 -55 115 -61 145 -15 75 -18 93 -20 115 -1 14 -2 737 -3
1608 l-1 1582 -1250 0 -1250 0 0 625 0 625 5943 0 c5095 0 5951 -2 6002 -15z
m-30 -3745 c98 -18 115 -22 115 -31 0 -5 8 -9 19 -9 26 0 157 -88 209 -140
121 -123 182 -276 177 -448 -4 -130 -18 -184 -80 -302 -72 -137 -218 -247
-385 -290 -70 -18 -124 -19 -1052 -20 l-978 0 0 625 0 625 963 -1 c529 0 985
-4 1012 -9z"/>
</g>
</svg>
