<svg xmlns="http://www.w3.org/2000/svg" width="64" height="64" data-name="Layer 266"
    viewBox="0 0 46.99 48.49">
    <path fill="#02653c"
        d="M44.14 6.91h-2.88v3.86a1.5 1.5 0 0 1-3 0V6.91H25v3.86a1.5 1.5 0 0 1-3 0V6.91H8.77v3.86a1.5 1.5 0 0 1-3 0V6.91H2.85A2.85 2.85 0 0 0 0 9.76v35.86a2.86 2.86 0 0 0 2.85 2.85h41.29a2.85 2.85 0 0 0 2.85-2.85V9.78a2.84 2.84 0 0 0-2.85-2.87Zm-7.52 13.91L20.76 36.7a1.49 1.49 0 0 1-1.06.44 1.51 1.51 0 0 1-1.06-.44l-8.27-8.27a1.503 1.503 0 0 1 2.13-2.12l7.2 7.2 14.8-14.79a1.5 1.5 0 0 1 2.12 2.12Z" />
    <path fill="#02653c"
        d="M8.77 1.5v5.41h-3V1.48a1.5 1.5 0 1 1 3 0zM25 1.5v5.41h-3V1.48a1.5 1.5 0 1 1 3 0zm16.26 0v5.41h-3V1.48a1.5 1.5 0 1 1 3 0z" />
</svg>