<svg xmlns="http://www.w3.org/2000/svg" width="64" height="64" viewBox="0 0 5.292 7.408">
    <path
        d="m 69,551 a 0.99999879,0.99999879 0 0 0 -1,1 v 26 a 0.99999879,0.99999879 0 0 0 1,1 h 18 a 0.99999879,0.99999879 0 0 0 1,-1 v -20 a 2.4142107,2.4142107 0 0 0 -0.05273,-0.49805 h -4.945313 c -0.822489,0 -1.498047,-0.68336 -1.498047,-1.50586 v -4.94336 A 2.4142107,2.4142107 0 0 0 81,551 Z m 13.5,0.52148 v 4.47461 c 4e-6,0.28199 0.219887,0.50196 0.501953,0.50196 h 4.472656 a 2.4142107,2.4142107 0 0 0 -0.18164,-0.20508 l -4.585938,-4.58594 A 2.4142107,2.4142107 0 0 0 82.5,551.52148 Z M 78,560 c 1.853598,0 3.375,1.52141 3.375,3.375 -1.9e-5,1.54367 -1.07652,2.79929 -2.5,3.19531 v 2.30469 c 0,0.48329 -0.391738,0.875 -0.875,0.875 -0.483266,0 -0.875,-0.39171 -0.875,-0.875 v -3 c 4.9e-5,-0.48321 0.391772,-0.87496 0.875,-0.875 0.90782,0 1.624992,-0.7172 1.625,-1.625 0,-0.90784 -0.717173,-1.625 -1.625,-1.625 -0.512402,0 -0.993468,0.24039 -1.300781,0.65039 -0.289697,0.38665 -0.837881,0.46529 -1.22461,0.17578 -0.386608,-0.2897 -0.465293,-0.83789 -0.175781,-1.22461 C 75.935716,560.50192 76.938138,560 78,560 Z m -0.04883,11.24609 a 0.87500006,0.87500006 0 0 1 0.04492,0 0.87500006,0.87500006 0 0 1 0.878906,0.87891 v 0.99609 A 0.87500006,0.87500006 0 0 1 77.996094,574 0.87500006,0.87500006 0 0 1 77.117188,573.12109 V 572.125 a 0.87500006,0.87500006 0 0 1 0.833984,-0.87891 z"
        transform="translate(-17.992 -145.785) scale(.26458)" />
</svg>